<svg width="100" height="83" viewBox="0 0 100 83" fill="none" xmlns="http://www.w3.org/2000/svg">
    <path
        d="M50 6.14375C43.8437 0.849999 34.9188 0.0624989 26.7938 0.874999C17.3313 1.83125 7.78125 5.075 1.83125 7.78125C1.28531 8.02955 0.822346 8.4297 0.497631 8.93395C0.172917 9.4382 0.000166071 10.0252 0 10.625L0 79.375C0.000144762 79.8979 0.131482 80.4123 0.381982 80.8713C0.632482 81.3302 0.994136 81.719 1.43382 82.002C1.8735 82.2849 2.37715 82.4531 2.89865 82.4909C3.42014 82.5288 3.9428 82.4352 4.41875 82.2187C9.93125 79.7187 18.8125 76.7125 27.4188 75.8438C36.225 74.9563 43.6063 76.3875 47.5625 81.325C47.8553 81.69 48.2264 81.9845 48.6482 82.1869C49.0701 82.3894 49.5321 82.4944 50 82.4944C50.4679 82.4944 50.9299 82.3894 51.3518 82.1869C51.7736 81.9845 52.1447 81.69 52.4375 81.325C56.3938 76.3875 63.775 74.9563 72.575 75.8438C81.1875 76.7125 90.075 79.7187 95.5813 82.2187C96.0572 82.4352 96.5799 82.5288 97.1014 82.4909C97.6228 82.4531 98.1265 82.2849 98.5662 82.002C99.0059 81.719 99.3675 81.3302 99.618 80.8713C99.8685 80.4123 99.9999 79.8979 100 79.375V10.625C99.9998 10.0252 99.8271 9.4382 99.5024 8.93395C99.1777 8.4297 98.7147 8.02955 98.1687 7.78125C92.2187 5.075 82.6688 1.83125 73.2063 0.874999C65.0813 0.0562489 56.1563 0.849999 50 6.14375Z"
        fill="url(#paint0_linear_3_4)"/>
    <defs>
        <linearGradient id="paint0_linear_3_4" x1="-45" y1="-33" x2="141" y2="120.5" gradientUnits="userSpaceOnUse">
            <stop stop-color="#8B6CEF"/>
            <stop offset="1" stop-color="#E46CEF"/>
        </linearGradient>
    </defs>
</svg>
